<?xml version="1.0" standalone="no"?><!DOCTYPE svg PUBLIC "-//W3C//DTD SVG 1.1//EN" "http://www.w3.org/Graphics/SVG/1.1/DTD/svg11.dtd"><svg t="1572522447917" class="icon" viewBox="0 0 1105 1024" version="1.1" xmlns="http://www.w3.org/2000/svg" p-id="1370" xmlns:xlink="http://www.w3.org/1999/xlink" width="34.53125" height="32"><defs><style type="text/css"></style></defs><path d="M1105.482847 538.795736L992.604812 50.860742A65.626764 65.626764 0 0 0 928.618717 0H346.509316a32.813382 32.813382 0 0 0-32.813382 32.813382v670.049265a32.813382 32.813382 0 0 0 32.813382 32.813382h103.690288c72.189441 48.235672 88.924266 146.347685 91.221203 160.785573 12.140951 82.689723 48.563806 131.253529 98.440146 127.315923a98.440147 98.440147 0 0 0 70.220638-32.813382 194.91149 194.91149 0 0 0 32.813382-131.253529l-17.062958-122.722049h182.770539a196.880293 196.880293 0 0 0 196.880293-198.192829z m-65.626764 6.89081a131.253529 131.253529 0 0 1-131.253529 124.362719h-193.927089a436.417984 436.417984 0 0 0-58.079687 0c-6.234543 0-4.593874 12.140951-3.609472 18.703628l6.562677 46.923136 18.375494 131.253529a133.222332 133.222332 0 0 1-17.391093 81.049054 32.813382 32.813382 0 0 1-23.953769 11.15655c-6.89081 0-23.625635-22.969368-30.516445-71.205039a328.133822 328.133822 0 0 0-62.67356-151.269692 241.834627 241.834627 0 0 0-68.579969-61.361025 32.813382 32.813382 0 0 0-17.062959-4.26574h-78.752117V65.626764H928.618717zM242.162761 668.080462V65.626764a65.626764 65.626764 0 0 0-65.626765-65.626764H65.626764a65.626764 65.626764 0 0 0-65.626764 65.626764v602.453698a65.626764 65.626764 0 0 0 65.626764 65.626764h110.909232a65.626764 65.626764 0 0 0 65.626765-65.626764z m-65.626765 0H65.626764V65.626764h110.909232z" fill="#515151" p-id="1371"></path></svg>